<svg xmlns="http://www.w3.org/2000/svg" viewBox="0 0 100 100" fill="none">
  <!-- Heart outline -->
  <path d="M50 90C50 90 10 60 10 35C10 20 22 10 35 10C42 10 48 14 50 20C52 14 58 10 65 10C78 10 90 20 90 35C90 60 50 90 50 90Z" stroke="#F29779" stroke-width="3" fill="none"/>
  
  <!-- Brain inside heart -->
  <g transform="translate(25, 25) scale(0.5)">
    <!-- Left hemisphere -->
    <path d="M45 20C35 20 30 30 30 40C30 50 35 60 45 65C40 60 38 50 38 40C38 30 40 25 45 20Z" stroke="#F29779" stroke-width="2" fill="none"/>
    <path d="M25 40C20 40 15 45 15 55C15 65 25 70 35 70" stroke="#F29779" stroke-width="2" fill="none"/>
    <path d="M30 30C25 35 20 40 20 50" stroke="#F29779" stroke-width="2" fill="none"/>
    
    <!-- Right hemisphere -->
    <path d="M55 20C65 20 70 30 70 40C70 50 65 60 55 65C60 60 62 50 62 40C62 30 60 25 55 20Z" stroke="#F29779" stroke-width="2" fill="none"/>
    <path d="M75 40C80 40 85 45 85 55C85 65 75 70 65 70" stroke="#F29779" stroke-width="2" fill="none"/>
    <path d="M70 30C75 35 80 40 80 50" stroke="#F29779" stroke-width="2" fill="none"/>
    
    <!-- Center connection -->
    <path d="M50 20L50 70" stroke="#F29779" stroke-width="2" fill="none"/>
    <circle cx="50" cy="45" r="8" stroke="#F29779" stroke-width="2" fill="none"/>
  </g>
  
  <!-- Bottom detail of heart -->
  <path d="M50 85L50 70" stroke="#F29779" stroke-width="2"/>
</svg>
